<svg width="1653" height="740" viewBox="0 0 1653 740" fill="none" xmlns="http://www.w3.org/2000/svg">
    <path d="M1592.4 390.141H1060.33V343.475H1592.4L1651 370.141L1592.4 390.141Z" fill="url(#paint0_linear_0_1)"
        stroke="white" stroke-width="1.33333" />
    <path d="M1057.67 390.141H531V343.475H1057.67L1115.67 370.141L1057.67 390.141Z" fill="url(#paint1_linear_0_1)"
        stroke="white" stroke-width="1.33333" />
    <path d="M527.667 390.141H1V343.475H527.667L585.667 370.141L527.667 390.141Z" fill="url(#paint2_linear_0_1)"
        stroke="white" stroke-width="1.33333" />
    <circle cx="268.333" cy="126.14" r="124.667" fill="url(#paint3_linear_0_1)" stroke="white" stroke-width="1.33333" />
    <circle cx="835" cy="614.14" r="124.667" fill="url(#paint4_linear_0_1)" stroke="white" stroke-width="1.33333" />
    <circle cx="1399" cy="126.14" r="124.667" fill="url(#paint5_linear_0_1)" stroke="white" stroke-width="1.33333" />
    <path
        d="M187.327 157.325C198.022 149.929 206.441 142.79 212.585 135.906C218.786 129.022 221.887 122.423 221.887 116.109C221.887 111.956 220.777 108.571 218.559 105.954C216.397 103.337 212.841 102.029 207.892 102.029C202.943 102.029 199.16 103.536 196.543 106.551C193.926 109.566 192.447 113.549 192.105 118.498H188.351C188.749 112.24 190.683 107.376 194.153 103.906C197.624 100.436 202.203 98.7006 207.892 98.7006C213.069 98.7006 217.307 100.151 220.607 103.053C223.963 105.954 225.641 110.278 225.641 116.023C225.641 123.134 222.37 130.302 215.828 137.527C209.343 144.752 201.919 151.124 193.556 156.642H227.604V159.885H187.327V157.325ZM235.737 129.506C235.737 119.664 237.16 112.098 240.004 106.807C242.848 101.46 248.082 98.786 255.705 98.786C263.272 98.786 268.477 101.46 271.321 106.807C274.166 112.098 275.588 119.664 275.588 129.506C275.588 139.462 274.166 147.142 271.321 152.546C268.477 157.894 263.272 160.567 255.705 160.567C248.082 160.567 242.848 157.894 240.004 152.546C237.16 147.142 235.737 139.462 235.737 129.506ZM271.833 129.506C271.833 123.817 271.407 119.01 270.553 115.085C269.757 111.159 268.164 108.059 265.775 105.783C263.442 103.451 260.086 102.285 255.705 102.285C251.325 102.285 247.94 103.451 245.551 105.783C243.218 108.059 241.625 111.159 240.772 115.085C239.976 119.01 239.577 123.817 239.577 129.506C239.577 135.309 239.976 140.201 240.772 144.183C241.625 148.109 243.218 151.238 245.551 153.57C247.94 155.902 251.325 157.069 255.705 157.069C260.086 157.069 263.442 155.902 265.775 153.57C268.164 151.238 269.757 148.109 270.553 144.183C271.407 140.201 271.833 135.309 271.833 129.506ZM281.609 102.967V99.4686H294.239V160.141H290.399V102.967H281.609ZM311.458 144.269C312.027 148.422 313.534 151.636 315.981 153.911C318.484 156.187 321.84 157.325 326.05 157.325C331.796 157.325 336.148 155.191 339.106 150.925C342.121 146.658 343.629 139.746 343.629 130.189L343.543 126.861C342.69 130.615 340.557 133.602 337.143 135.821C333.787 138.039 329.862 139.149 325.367 139.149C319.223 139.149 314.388 137.328 310.861 133.687C307.334 130.046 305.57 125.012 305.57 118.583C305.57 112.894 307.191 108.173 310.434 104.418C313.734 100.606 318.683 98.7006 325.282 98.7006C333.588 98.7006 339.277 101.346 342.349 106.637C345.478 111.927 347.042 119.294 347.042 128.738C347.042 139.149 345.421 147.085 342.178 152.546C338.935 157.95 333.502 160.653 325.879 160.653C320.532 160.653 316.322 159.174 313.25 156.215C310.178 153.2 308.358 149.218 307.789 144.269H311.458ZM325.794 135.906C328.695 135.906 331.454 135.309 334.071 134.114C336.688 132.862 338.793 131.042 340.386 128.653C342.036 126.263 342.861 123.362 342.861 119.949C342.861 116.706 342.235 113.719 340.983 110.989C339.732 108.258 337.769 106.068 335.095 104.418C332.478 102.768 329.207 101.943 325.282 101.943C320.446 101.943 316.55 103.451 313.591 106.466C310.69 109.424 309.239 113.463 309.239 118.583C309.239 124.102 310.69 128.368 313.591 131.383C316.493 134.398 320.56 135.906 325.794 135.906Z"
        fill="black" />
    <path
        d="M756.785 645.325C767.48 637.929 775.9 630.79 782.044 623.906C788.245 617.022 791.345 610.423 791.345 604.109C791.345 599.956 790.236 596.571 788.017 593.954C785.855 591.337 782.3 590.029 777.35 590.029C772.401 590.029 768.618 591.536 766.001 594.551C763.384 597.566 761.905 601.549 761.564 606.498H757.809C758.207 600.24 760.142 595.376 763.612 591.906C767.082 588.436 771.662 586.701 777.35 586.701C782.527 586.701 786.766 588.151 790.065 591.053C793.422 593.954 795.1 598.278 795.1 604.023C795.1 611.134 791.829 618.302 785.286 625.527C778.801 632.752 771.377 639.124 763.014 644.642H797.062V647.885H756.785V645.325ZM805.196 617.506C805.196 607.664 806.618 600.098 809.462 594.807C812.307 589.46 817.541 586.786 825.164 586.786C832.73 586.786 837.935 589.46 840.78 594.807C843.624 600.098 845.047 607.664 845.047 617.506C845.047 627.462 843.624 635.142 840.78 640.546C837.935 645.894 832.73 648.567 825.164 648.567C817.541 648.567 812.307 645.894 809.462 640.546C806.618 635.142 805.196 627.462 805.196 617.506ZM841.292 617.506C841.292 611.817 840.865 607.01 840.012 603.085C839.215 599.159 837.622 596.059 835.233 593.783C832.901 591.451 829.544 590.285 825.164 590.285C820.783 590.285 817.398 591.451 815.009 593.783C812.677 596.059 811.084 599.159 810.23 603.085C809.434 607.01 809.036 611.817 809.036 617.506C809.036 623.309 809.434 628.201 810.23 632.183C811.084 636.109 812.677 639.238 815.009 641.57C817.398 643.902 820.783 645.069 825.164 645.069C829.544 645.069 832.901 643.902 835.233 641.57C837.622 639.238 839.215 636.109 840.012 632.183C840.865 628.201 841.292 623.309 841.292 617.506ZM853.372 645.325C864.067 637.929 872.486 630.79 878.63 623.906C884.831 617.022 887.932 610.423 887.932 604.109C887.932 599.956 886.822 596.571 884.604 593.954C882.442 591.337 878.886 590.029 873.937 590.029C868.988 590.029 865.205 591.536 862.588 594.551C859.971 597.566 858.492 601.549 858.15 606.498H854.396C854.794 600.24 856.728 595.376 860.198 591.906C863.669 588.436 868.248 586.701 873.937 586.701C879.114 586.701 883.352 588.151 886.652 591.053C890.008 593.954 891.686 598.278 891.686 604.023C891.686 611.134 888.415 618.302 881.873 625.527C875.388 632.752 867.964 639.124 859.601 644.642H893.649V647.885H853.372V645.325ZM898.028 590.967V587.469H910.657V648.141H906.817V590.967H898.028Z"
        fill="black" />
    <path
        d="M1306.33 157.325C1317.02 149.929 1325.44 142.79 1331.59 135.906C1337.79 129.022 1340.89 122.423 1340.89 116.109C1340.89 111.956 1339.78 108.571 1337.56 105.954C1335.4 103.337 1331.84 102.029 1326.89 102.029C1321.94 102.029 1318.16 103.536 1315.54 106.551C1312.93 109.566 1311.45 113.549 1311.11 118.498H1307.35C1307.75 112.24 1309.68 107.376 1313.15 103.906C1316.62 100.436 1321.2 98.7006 1326.89 98.7006C1332.07 98.7006 1336.31 100.151 1339.61 103.053C1342.96 105.954 1344.64 110.278 1344.64 116.023C1344.64 123.134 1341.37 130.302 1334.83 137.527C1328.34 144.752 1320.92 151.124 1312.56 156.642H1346.6V159.885H1306.33V157.325ZM1354.74 129.506C1354.74 119.664 1356.16 112.098 1359 106.807C1361.85 101.46 1367.08 98.786 1374.71 98.786C1382.27 98.786 1387.48 101.46 1390.32 106.807C1393.17 112.098 1394.59 119.664 1394.59 129.506C1394.59 139.462 1393.17 147.142 1390.32 152.546C1387.48 157.894 1382.27 160.567 1374.71 160.567C1367.08 160.567 1361.85 157.894 1359 152.546C1356.16 147.142 1354.74 139.462 1354.74 129.506ZM1390.83 129.506C1390.83 123.817 1390.41 119.01 1389.55 115.085C1388.76 111.159 1387.16 108.059 1384.77 105.783C1382.44 103.451 1379.09 102.285 1374.71 102.285C1370.33 102.285 1366.94 103.451 1364.55 105.783C1362.22 108.059 1360.63 111.159 1359.77 115.085C1358.98 119.01 1358.58 123.817 1358.58 129.506C1358.58 135.309 1358.98 140.201 1359.77 144.183C1360.63 148.109 1362.22 151.238 1364.55 153.57C1366.94 155.902 1370.33 157.069 1374.71 157.069C1379.09 157.069 1382.44 155.902 1384.77 153.57C1387.16 151.238 1388.76 148.109 1389.55 144.183C1390.41 140.201 1390.83 135.309 1390.83 129.506ZM1402.91 157.325C1413.61 149.929 1422.03 142.79 1428.17 135.906C1434.37 129.022 1437.47 122.423 1437.47 116.109C1437.47 111.956 1436.36 108.571 1434.15 105.954C1431.98 103.337 1428.43 102.029 1423.48 102.029C1418.53 102.029 1414.75 103.536 1412.13 106.551C1409.51 109.566 1408.03 113.549 1407.69 118.498H1403.94C1404.34 112.24 1406.27 107.376 1409.74 103.906C1413.21 100.436 1417.79 98.7006 1423.48 98.7006C1428.66 98.7006 1432.89 100.151 1436.19 103.053C1439.55 105.954 1441.23 110.278 1441.23 116.023C1441.23 123.134 1437.96 130.302 1431.41 137.527C1424.93 144.752 1417.51 151.124 1409.14 156.642H1443.19V159.885H1402.91V157.325ZM1489.13 102.882H1456.36V127.373C1457.89 125.211 1460.14 123.447 1463.1 122.082C1466.06 120.66 1469.27 119.949 1472.74 119.949C1477.35 119.949 1481.11 120.887 1484.01 122.765C1486.97 124.585 1489.1 126.974 1490.41 129.933C1491.72 132.891 1492.37 136.105 1492.37 139.575C1492.37 143.444 1491.66 146.971 1490.24 150.157C1488.81 153.286 1486.57 155.817 1483.49 157.751C1480.48 159.629 1476.67 160.567 1472.06 160.567C1466.49 160.567 1461.88 159.06 1458.24 156.045C1454.65 152.973 1452.46 148.848 1451.67 143.671H1455.42C1456.27 148.052 1458.18 151.408 1461.14 153.741C1464.1 156.016 1467.74 157.154 1472.06 157.154C1477.58 157.154 1481.73 155.561 1484.52 152.375C1487.31 149.133 1488.7 144.894 1488.7 139.661C1488.7 134.541 1487.28 130.53 1484.43 127.629C1481.65 124.727 1477.64 123.277 1472.4 123.277C1468.82 123.277 1465.6 124.073 1462.76 125.666C1459.97 127.259 1457.81 129.449 1456.27 132.237H1452.69V99.4686H1489.13V102.882Z"
        fill="black" />
    <line x1="267.667" y1="251.473" x2="267.667" y2="372.806" stroke="white" stroke-width="1.33333" />
    <line x1="835" y1="368.807" x2="835" y2="490.14" stroke="white" stroke-width="1.33333" />
    <line x1="1399" y1="251.473" x2="1399" y2="372.806" stroke="white" stroke-width="1.33333" />
    <path
        d="M278.333 368.276C278.333 374.167 273.558 378.943 267.667 378.943C261.776 378.943 257 374.167 257 368.276C257 362.385 261.776 357.609 267.667 357.609C273.558 357.609 278.333 362.385 278.333 368.276Z"
        fill="white" />
    <path
        d="M285 368.141C285 377.714 277.24 385.474 267.667 385.474C258.094 385.474 250.334 377.714 250.334 368.141C250.334 358.568 258.094 350.807 267.667 350.807C277.24 350.807 285 358.568 285 368.141Z"
        stroke="white" stroke-width="1.33333" />
    <path
        d="M853 368.141C853 377.714 845.24 385.474 835.667 385.474C826.094 385.474 818.334 377.714 818.334 368.141C818.334 358.568 826.094 350.807 835.667 350.807C845.24 350.807 853 358.568 853 368.141Z"
        stroke="white" stroke-width="1.33333" />
    <path
        d="M1415.67 368.141C1415.67 377.714 1407.91 385.474 1398.33 385.474C1388.76 385.474 1381 377.714 1381 368.141C1381 358.568 1388.76 350.807 1398.33 350.807C1407.91 350.807 1415.67 358.568 1415.67 368.141Z"
        stroke="white" stroke-width="1.33333" />
    <path
        d="M845.666 368.276C845.666 374.167 840.891 378.943 835 378.943C829.109 378.943 824.333 374.167 824.333 368.276C824.333 362.385 829.109 357.609 835 357.609C840.891 357.609 845.666 362.385 845.666 368.276Z"
        fill="white" />
    <path
        d="M1409.67 368.276C1409.67 374.167 1404.89 378.943 1399 378.943C1393.11 378.943 1388.33 374.167 1388.33 368.276C1388.33 362.385 1393.11 357.609 1399 357.609C1404.89 357.609 1409.67 362.385 1409.67 368.276Z"
        fill="white" />
    <defs>
        <linearGradient id="paint0_linear_0_1" x1="1606.55" y1="367.475" x2="1059.66" y2="367.475"
            gradientUnits="userSpaceOnUse">
            <stop stop-color="#6CEEFD" />
            <stop offset="1" stop-color="#0ACDE4" />
        </linearGradient>
        <linearGradient id="paint1_linear_0_1" x1="1071.67" y1="367.475" x2="530.333" y2="367.475"
            gradientUnits="userSpaceOnUse">
            <stop stop-color="#FFD26E" />
            <stop offset="1" stop-color="#FEB30C" />
        </linearGradient>
        <linearGradient id="paint2_linear_0_1" x1="541.667" y1="367.475" x2="0.333321" y2="367.475"
            gradientUnits="userSpaceOnUse">
            <stop stop-color="#B356FC" />
            <stop offset="1" stop-color="#70369E" />
        </linearGradient>
        <linearGradient id="paint3_linear_0_1" x1="268.333" y1="0.806641" x2="268.333" y2="251.473"
            gradientUnits="userSpaceOnUse">
            <stop stop-color="#B557FF" />
            <stop offset="1" stop-color="#6D3499" />
        </linearGradient>
        <linearGradient id="paint4_linear_0_1" x1="835" y1="488.807" x2="835" y2="739.473"
            gradientUnits="userSpaceOnUse">
            <stop stop-color="#FFD371" />
            <stop offset="1" stop-color="#FFB207" />
        </linearGradient>
        <linearGradient id="paint5_linear_0_1" x1="1399" y1="0.806641" x2="1399" y2="251.473"
            gradientUnits="userSpaceOnUse">
            <stop stop-color="#70F0FE" />
            <stop offset="1" stop-color="#04CCE3" />
        </linearGradient>
    </defs>
</svg>