<svg xmlns="http://www.w3.org/2000/svg" width="122" height="112" viewBox="0 0 122 112" fill="none">
    <path
        d="M118.291 15.6917H112.57L108.28 21.6632L103.989 15.6917V3.74855C103.989 2.10637 102.702 0.762695 101.129 0.762695H3.30571C1.73253 0.762695 0.445312 2.10637 0.445312 3.74855V99.2935C0.445312 105.862 5.59394 111.237 11.8867 111.237H109.71C116.003 111.237 121.151 105.862 121.151 99.2935V18.6773C121.151 17.0352 119.864 15.6917 118.291 15.6917Z"
        fill="#C2E7FF" />
    <path
        d="M112.57 15.6914V94.8147C112.57 97.287 110.648 99.2934 108.28 99.2934C105.911 99.2934 103.989 97.287 103.989 94.8147V15.6914H112.57Z"
        fill="#4EB9FF" />
    <path
        d="M45.0664 96.3076H17.6072C16.0274 96.3076 14.7468 94.9708 14.7468 93.3217C14.7468 91.6727 16.0274 90.3359 17.6072 90.3359H45.0664C46.6462 90.3359 47.9268 91.6727 47.9268 93.3217C47.9268 94.9708 46.6462 96.3076 45.0664 96.3076Z"
        fill="#FAFAFA" />
    <path
        d="M86.8274 96.3076H59.3682C57.7884 96.3076 56.5078 94.9708 56.5078 93.3217C56.5078 91.6727 57.7884 90.3359 59.3682 90.3359H86.8274C88.4069 90.3359 89.6878 91.6727 89.6878 93.3217C89.6878 94.9708 88.4067 96.3076 86.8274 96.3076Z"
        fill="#FAFAFA" />
    <path
        d="M86.8273 21.6632H17.6072C16.0274 21.6632 14.7468 20.3264 14.7468 18.6773C14.7468 17.0282 16.0274 15.6915 17.6072 15.6915H86.8271C88.4066 15.6915 89.6875 17.0282 89.6875 18.6773C89.6875 20.3264 88.4066 21.6632 86.8273 21.6632Z"
        fill="#FAFAFA" />
    <path
        d="M86.8274 36.5919H59.3682C57.7884 36.5919 56.5078 35.2552 56.5078 33.6061C56.5078 31.957 57.7884 30.6202 59.3682 30.6202H86.8274C88.4069 30.6202 89.6878 31.957 89.6878 33.6061C89.6878 35.2552 88.4067 36.5919 86.8274 36.5919Z"
        fill="#FAFAFA" />
    <path
        d="M86.8271 51.5206H59.368C57.7882 51.5206 56.5076 50.1838 56.5076 48.5347C56.5076 46.8857 57.7882 45.5489 59.368 45.5489H86.8271C88.4067 45.5489 89.6875 46.8857 89.6875 48.5347C89.6875 50.1838 88.4065 51.5206 86.8271 51.5206Z"
        fill="#FAFAFA" />
    <path
        d="M86.8271 66.4493H59.368C57.7882 66.4493 56.5076 65.1125 56.5076 63.4635C56.5076 61.8144 57.7882 60.4776 59.368 60.4776H86.8271C88.4067 60.4776 89.6875 61.8144 89.6875 63.4635C89.6873 65.1128 88.4065 66.4493 86.8271 66.4493Z"
        fill="#FAFAFA" />
    <path
        d="M86.8274 81.3788H59.3682C57.7884 81.3788 56.5078 80.042 56.5078 78.393C56.5078 76.7439 57.7884 75.4071 59.3682 75.4071H86.8274C88.4069 75.4071 89.6878 76.7439 89.6878 78.393C89.6878 80.042 88.4067 81.3788 86.8274 81.3788Z"
        fill="#FAFAFA" />
    <path
        d="M45.0664 81.3788H17.6072C16.0274 81.3788 14.7468 80.042 14.7468 78.393C14.7468 76.7439 16.0274 75.4071 17.6072 75.4071H45.0664C46.6462 75.4071 47.9268 76.7439 47.9268 78.393C47.9268 80.042 46.6462 81.3788 45.0664 81.3788Z"
        fill="#FAFAFA" />
    <path d="M45.0664 33.6064H17.6072V63.7627H45.0664V33.6064Z" fill="#4EB9FF" />
    <script xmlns="" />
</svg>