<svg xmlns="http://www.w3.org/2000/svg" width="94" height="75" viewBox="0 0 94 75" fill="none">
<rect width="93.996" height="74.6" rx="10" fill="#39A7E7"/>
<path d="M47.507 10.4414L55.4657 34.0692L47.507 58.5078L13.4062 55.9096V10.4414H47.507Z" fill="white"/>
<path d="M81.6085 10.4414V55.9096L47.5078 58.5078V10.4414H81.6085Z" fill="white"/>
<path d="M18.6055 15.6367V50.7106H47.5099L53.0583 34.0683L47.5099 15.6367H18.6055Z" fill="#39A7E7"/>
<path d="M47.5078 15.6367H76.4123V50.7106H47.5078V15.6367Z" fill="#39A7E7"/>
<path d="M50.4685 58.4704L47.5057 63.2884L12.9445 61.1064C11.4929 59.4742 10.1568 57.7373 8.94531 55.9102H36.409L47.5057 57.88L49.396 57.5441L50.4685 58.4704Z" fill="white"/>
<path d="M86.0642 55.9102C84.8527 57.7373 83.5167 59.4742 82.065 61.1064L47.5039 63.2884V57.88L58.6006 55.9102H86.0642Z" fill="#E0F8FC"/>
<path d="M47.5068 55.9141L50.0151 57.2131L47.5068 58.5122H36.4102V55.9141H47.5068Z" fill="#BDDDF9"/>
<path d="M47.5078 55.9141H58.6045V58.5122H47.5078V55.9141Z" fill="#94CFFF"/>
<path d="M47.5104 25.4883L51.7689 34.0991L47.5104 41.4942H34.9766V25.4883H47.5104Z" fill="#FF9907"/>
<path d="M47.5078 25.4883H60.0417V41.4942H47.5078V25.4883Z" fill="#F28A00"/>
<path d="M47.5104 25.8613L51.0812 34.9756L47.5104 41.4953H34.9766L47.5104 25.8613Z" fill="#FFBF03"/>
<path d="M47.5104 25.4883L51.0812 29.1594L47.5104 33.4903L34.9766 25.4883H47.5104Z" fill="#FFE702"/>
<path d="M60.0417 41.4953H47.5078V25.8613L60.0417 41.4953Z" fill="#FF9907"/>
<path d="M60.0417 25.4883L47.5078 33.4903V25.4883H60.0417Z" fill="#FFBF03"/>
<path d="M60.2181 30.1803C62.9209 30.1803 65.1119 27.9892 65.1119 25.2864C65.1119 22.5836 62.9209 20.3926 60.2181 20.3926C57.5153 20.3926 55.3242 22.5836 55.3242 25.2864C55.3242 27.9892 57.5153 30.1803 60.2181 30.1803Z" fill="#FF3053"/>
<script xmlns=""/></svg>