<svg xmlns="http://www.w3.org/2000/svg" width="94" height="75" viewBox="0 0 94 75" fill="none">
<rect width="93.996" height="74.6" rx="10" fill="#39A7E7"/>
<path d="M49.0255 53.7025L47.18 62.1631L33.9141 59.07L44.2533 56.0013V45.2422H47.18L49.0255 53.7025Z" fill="white"/>
<path d="M60.4457 59.07L47.1797 62.1631V45.2422H50.1065V56.0013L60.4457 59.07Z" fill="#E0F8FC"/>
<path d="M47.1846 45.2422L49.0309 51.4736L47.1846 56.0013H44.2578V45.2422H47.1846Z" fill="#E0F8FC"/>
<path d="M47.1797 45.2422H50.1065V56.0013H47.1797V45.2422Z" fill="#BDDDF9"/>
<path d="M47.1769 14.502L57.908 31.9015L47.1769 50.4187H17.4883V14.502H47.1769Z" fill="#39A7E7"/>
<path d="M47.1797 14.502H76.8683V50.4187H47.1797V14.502Z" fill="#39A7E7"/>
<path d="M47.1779 17.0685L49.6858 14.1112L47.1779 11.9336H14.9219V52.9852H47.1779L49.6858 50.399L47.1779 47.8504H20.0568V17.0685H47.1779Z" fill="white"/>
<path d="M48.8504 60.6207L47.18 62.1673H33.9141V59.0742H47.18L48.8504 60.6207Z" fill="#E0F8FC"/>
<path d="M79.4357 11.9336V52.9852H47.1797V47.8504H74.3009V17.0685H47.1797V11.9336H79.4357Z" fill="white"/>
<path d="M47.1797 59.0742H60.4457V62.1673H47.1797V59.0742Z" fill="#BDDDF9"/>
<path d="M47.1798 24.5879L52.7984 30.7068L47.1798 36.4142H24.0938V24.5879H47.1798Z" fill="white"/>
<path d="M63.8952 30.501L58.4433 36.4142H47.1836V24.5879H58.4433L63.8952 30.501Z" fill="white"/>
<path d="M58.4375 24.5879H70.2641V36.4145H58.4375V24.5879Z" fill="black"/>
<path d="M26.3008 27H41.853V29.3335H26.3008V27Z" fill="#3B2E8E"/>
<path d="M47.1787 27L48.6422 28.1663L47.1787 29.3326H44.2812V27H47.1787Z" fill="#3B2E8E"/>
<path d="M26.3008 31.668H38.3778V34.0015H26.3008V31.668Z" fill="#3B2E8E"/>
<path d="M65.2906 31.018H59.8645C59.7646 31.018 59.6836 30.937 59.6836 30.8371C59.6836 30.7373 59.7646 30.6562 59.8645 30.6562H65.2906C65.3904 30.6562 65.4715 30.7373 65.4715 30.8371C65.4715 30.937 65.3904 31.018 65.2906 31.018Z" fill="white"/>
<path d="M63.863 32.6222C63.8121 32.6222 63.7612 32.6027 63.7222 32.5642C63.6447 32.4866 63.6447 32.3605 63.7222 32.283L65.1728 30.8325L63.7226 29.3823C63.6451 29.3048 63.6451 29.1787 63.7226 29.1011C63.8002 29.0236 63.9263 29.0236 64.0038 29.1011L65.5947 30.6921C65.6723 30.7696 65.6723 30.8957 65.5947 30.9733L64.0038 32.5642C63.9648 32.6027 63.9139 32.6222 63.863 32.6222Z" fill="white"/>
<path d="M64.0241 34.8157C62.3402 34.8157 60.8324 33.7497 60.2721 32.1631C60.2388 32.0687 60.2884 31.9656 60.3824 31.9323C60.4768 31.8997 60.5799 31.9486 60.6132 32.0426C61.1225 33.4849 62.4932 34.454 64.0241 34.454C66.0187 34.454 67.6415 32.8312 67.6415 30.8366C67.6415 28.8419 66.0187 27.2192 64.0241 27.2192C62.4932 27.2192 61.1225 28.1883 60.6136 29.6309C60.5803 29.7249 60.4768 29.7738 60.3828 29.7412C60.2887 29.7079 60.2392 29.6048 60.2724 29.5104C60.8324 27.9235 62.3402 26.8574 64.0241 26.8574C66.218 26.8574 68.0032 28.6426 68.0032 30.8366C68.0032 33.0305 66.218 34.8157 64.0241 34.8157Z" fill="white"/>
<path d="M66.8939 40.2977L62.625 39.4727L63.4501 43.7415L64.6563 42.5353L66.837 44.716L67.8683 43.6847L65.6876 41.504L66.8939 40.2977Z" fill="white"/>
<path d="M47.1836 27.002H55.9489V29.3345H47.1836V27.002Z" fill="#220F7C"/>
<script xmlns=""/></svg>