<svg xmlns="http://www.w3.org/2000/svg" width="94" height="75" viewBox="0 0 94 75" fill="none">
<rect width="94" height="74.6032" rx="10" fill="#39A7E7"/>
<path d="M89.5321 33.4413C89.5321 37.0316 89.0784 40.5158 88.2282 43.8417L79.0958 54.2796H11.5382C8.00017 48.1451 5.97656 41.0299 5.97656 33.4413C5.97656 28.5145 6.83007 23.7867 8.3951 19.3984H87.1136C88.6786 23.7867 89.5321 28.5145 89.5321 33.4413Z" fill="white"/>
<path d="M89.5317 33.4413C89.5317 37.0316 89.078 40.5158 88.2278 43.8417L79.0954 54.2796H47.7539V19.3984H87.1131C88.6782 23.7867 89.5317 28.5145 89.5317 33.4413Z" fill="white"/>
<path d="M88.2261 43.8418C88.0694 44.4521 87.8997 45.0576 87.7153 45.6565V45.6581L79.0938 54.2797V43.8418H88.2261Z" fill="#00AB65"/>
<path d="M14.5731 31.4067V43.3265L19.6844 46.1922V49.7971C18.7395 49.8004 17.6036 49.802 17.5563 49.802C17.3654 49.802 17.1777 49.7939 16.99 49.7792C14.7918 49.6013 12.8824 48.4067 11.7319 46.6654C11.7221 46.6573 11.7123 46.6491 11.7025 46.6409C11.0236 45.5981 10.6189 44.3644 10.583 43.036C10.5814 42.9838 10.5798 42.9315 10.5798 42.8793C10.5798 42.8663 10.5781 42.8548 10.5781 42.8434V30.8356C10.5781 30.8241 10.5798 30.8111 10.5798 30.7997C10.5798 30.7474 10.5814 30.6952 10.583 30.643C10.6189 29.3146 11.0236 28.0808 11.7025 27.038C11.7123 27.0299 11.7221 27.0217 11.7319 27.0136C12.8824 25.2723 14.7918 24.0777 16.99 23.8998C17.1777 23.8851 17.3654 23.877 17.5563 23.877C17.6167 23.877 18.9843 23.8802 19.6844 23.8835V28.0254L14.5731 31.4067Z" fill="#39A7E7"/>
<path d="M15.7519 32.8638V40.8309C15.7519 41.4511 16.2545 41.9521 16.873 41.9521H19.6849V46.1902H16.5874C14.7221 46.1902 13.2109 44.6791 13.2109 42.8154V31.3983C13.2109 29.5346 14.7221 28.0234 16.5874 28.0234H19.6849V31.7426H16.873C16.2545 31.7426 15.7519 32.2436 15.7519 32.8638Z" fill="#39A7E7"/>
<path d="M26.1511 37.5176C24.2155 37.5176 22.6406 39.0922 22.6406 41.0279V45.1089C22.6406 47.0445 24.2155 48.6194 26.1511 48.6194C28.0867 48.6194 29.6616 47.0444 29.6616 45.1089V41.0279C29.6616 39.0922 28.0867 37.5176 26.1511 37.5176ZM27.7442 45.1087C27.7442 45.987 27.0296 46.7018 26.1509 46.7018C25.2726 46.7018 24.5578 45.987 24.5578 45.1087V41.0277C24.5578 40.1493 25.2725 39.4348 26.1509 39.4348C27.0294 39.4348 27.7442 40.1494 27.7442 41.0277V45.1087Z" fill="#39A7E7"/>
<path d="M34.2995 37.5176C32.3639 37.5176 30.7891 39.0922 30.7891 41.0279V45.1089C30.7891 47.0445 32.3639 48.6194 34.2995 48.6194C36.2352 48.6194 37.81 47.0444 37.81 45.1089V41.0279C37.81 39.0922 36.2352 37.5176 34.2995 37.5176ZM35.8926 45.1087C35.8926 45.987 35.178 46.7018 34.2995 46.7018C33.4211 46.7018 32.7064 45.987 32.7064 45.1087V41.0277C32.7064 40.1493 33.4211 39.4348 34.2995 39.4348C35.178 39.4348 35.8926 40.1494 35.8926 41.0277V45.1087Z" fill="#39A7E7"/>
<path d="M42.5417 37.5176C40.6061 37.5176 39.0312 39.0922 39.0312 41.0279V45.1089C39.0312 47.0445 40.6061 48.6194 42.5417 48.6194C44.4774 48.6194 46.0522 47.0444 46.0522 45.1089V41.0279C46.052 39.0922 44.4772 37.5176 42.5417 37.5176ZM44.1347 45.1087C44.1347 45.987 43.42 46.7018 42.5416 46.7018C41.6631 46.7018 40.9485 45.987 40.9485 45.1087V41.0277C40.9485 40.1493 41.6631 39.4348 42.5416 39.4348C43.42 39.4348 44.1347 40.1494 44.1347 41.0277V45.1087Z" fill="#39A7E7"/>
<path d="M55.7773 39.7182H57.6635V48.5422H59.5809V37.8008H55.7773V39.7182Z" fill="#39A7E7"/>
<path d="M66.5707 43.6718C67.1314 42.8703 67.497 42.1139 67.6572 41.423L67.7179 40.9864L67.7256 40.865C67.7256 39.0914 66.2826 37.6484 64.5089 37.6484C62.9752 37.6484 61.6479 38.7394 61.3527 40.2427L61.168 41.1834L63.0494 41.5527L63.2342 40.612C63.3533 40.0058 63.8894 39.5658 64.509 39.5658C65.2078 39.5658 65.7795 40.1203 65.8074 40.8123L65.7792 41.0328C65.6682 41.4742 65.4061 41.9919 65.0001 42.5723C62.8722 45.6127 61.9417 46.6083 61.9343 46.616L61.6711 46.8921L61.6646 48.5254L68.0969 48.5453L68.1028 46.6279L64.4149 46.6165C64.9312 45.9524 65.6419 44.9989 66.5707 43.6718Z" fill="#39A7E7"/>
<path d="M75.6244 40.8103C75.6244 39.0367 74.1814 37.5938 72.4076 37.5938C70.8741 37.5938 69.5465 38.6847 69.2513 40.1877L69.0664 41.1284L70.9479 41.4982L71.1326 40.5575C71.2517 39.9511 71.788 39.5111 72.4076 39.5111C73.1241 39.5111 73.707 40.0939 73.707 40.8103C73.707 41.5267 73.1241 42.1095 72.4076 42.1095H71.449V44.0269H72.4076C73.1241 44.0269 73.707 44.61 73.707 45.3264C73.707 46.0428 73.1241 46.6256 72.4076 46.6256C71.7629 46.6256 71.2098 46.1453 71.121 45.5092C71.1125 45.4488 71.1085 45.3873 71.1085 45.3264V44.3678H69.1911V45.3264C69.1911 45.4752 69.2015 45.6255 69.2221 45.7737C69.4424 47.3525 70.8119 48.543 72.4078 48.543C74.1814 48.543 75.6245 47.1 75.6245 45.3264C75.6245 44.4471 75.2691 43.6496 74.6953 43.0683C75.2689 42.487 75.6244 41.6896 75.6244 40.8103Z" fill="#39A7E7"/>
<path d="M48.8945 42.1113H56.242V44.0287H48.8945V42.1113Z" fill="#39A7E7"/>
<path d="M22.9414 28.875H75.6238V33.9585H22.9414V28.875Z" fill="#39A7E7"/>
<path d="M47.75 28.875H75.622V33.9585H47.75V28.875Z" fill="#39A7E7"/>
<script xmlns=""/></svg>