<svg xmlns="http://www.w3.org/2000/svg" width="121" height="120" viewBox="0 0 121 120" fill="none">
    <path fill-rule="evenodd" clip-rule="evenodd"
        d="M17.3596 120H108.096C114.899 120 120.434 114.465 120.434 107.662V0H22.1205L22.0896 110.279C22.0896 114.218 20.2383 117.733 17.3596 120ZM109.523 109.175H81.5936C80.8629 109.175 80.2701 108.583 80.2701 107.852C80.2701 107.121 80.8624 106.528 81.5936 106.528H109.523C110.254 106.528 110.847 107.121 110.847 107.852C110.847 108.583 110.254 109.175 109.523 109.175ZM31.7076 11.9953C31.7076 11.2641 32.3004 10.6718 33.0311 10.6718H109.524C110.254 10.6718 110.847 11.2641 110.847 11.9953V51.08C110.847 51.8108 110.255 52.4036 109.524 52.4036H33.0311C32.3004 52.4036 31.7076 51.8112 31.7076 51.08V11.9953ZM33.0311 59.4248H109.524C110.254 59.4248 110.847 60.0175 110.847 60.7483C110.847 61.479 110.255 62.0718 109.524 62.0718H33.0311C32.3004 62.0718 31.7076 61.4795 31.7076 60.7483C31.7076 60.0175 32.2999 59.4248 33.0311 59.4248ZM110.847 70.1688C110.847 70.9 110.254 71.4923 109.523 71.4923H61.0273C60.2966 71.4923 59.7038 70.9 59.7038 70.1688C59.7038 69.438 60.2961 68.8452 61.0273 68.8452H109.523C110.254 68.8452 110.847 69.438 110.847 70.1688ZM33.0311 68.8452H46.221C46.9517 68.8452 47.5445 69.4376 47.5445 70.1688C47.5445 70.9 46.9522 71.4923 46.221 71.4923H33.0311C32.3004 71.4923 31.7076 70.9 31.7076 70.1688C31.7076 69.438 32.2999 68.8452 33.0311 68.8452ZM33.0311 78.2666H109.524C110.254 78.2666 110.847 78.8589 110.847 79.5901C110.847 80.3213 110.255 80.9136 109.524 80.9136H33.0311C32.3004 80.9136 31.7076 80.3213 31.7076 79.5901C31.7076 78.8589 32.2999 78.2666 33.0311 78.2666ZM110.847 89.0106C110.847 89.7413 110.254 90.3341 109.523 90.3341H61.0273C60.2966 90.3341 59.7038 89.7418 59.7038 89.0106C59.7038 88.2798 60.2961 87.6871 61.0273 87.6871H109.523C110.254 87.6871 110.847 88.2794 110.847 89.0106ZM33.0311 87.6871H46.221C46.9517 87.6871 47.5445 88.2798 47.5445 89.0106C47.5445 89.7413 46.9522 90.3341 46.221 90.3341H33.0311C32.3004 90.3341 31.7076 89.7418 31.7076 89.0106C31.7076 88.2794 32.2999 87.6871 33.0311 87.6871ZM33.0311 97.108H109.524C110.254 97.108 110.847 97.7008 110.847 98.4315C110.847 99.1623 110.255 99.755 109.524 99.755H33.0311C32.3004 99.755 31.7076 99.1623 31.7076 98.4315C31.7076 97.7008 32.2999 97.108 33.0311 97.108ZM33.0311 106.528H66.3751C67.1059 106.528 67.6986 107.121 67.6986 107.852C67.6986 108.583 67.1059 109.175 66.3751 109.175H33.0311C32.3004 109.175 31.7076 108.583 31.7076 107.852C31.7076 107.121 32.2999 106.528 33.0311 106.528Z"
        fill="#FFFFFE" />
    <path fill-rule="evenodd" clip-rule="evenodd"
        d="M108.199 13.3184H34.3535V49.7561H108.199V13.3184H108.199ZM52.6703 39.7675C52.6703 40.3898 52.2365 40.9284 51.6281 41.0605C51.534 41.0812 51.4395 41.091 51.3467 41.091C50.8373 41.091 50.3615 40.7958 50.1433 40.3168L45.1589 29.3945V39.7671C45.1589 40.4978 44.5661 41.0906 43.8354 41.0906C43.1046 41.0906 42.5119 40.4978 42.5119 39.7671V23.307C42.5119 22.6842 42.946 22.1457 43.554 22.0135C44.1624 21.8813 44.7807 22.1909 45.0393 22.7573L50.0241 33.6796V23.307C50.0241 22.5762 50.6164 21.9835 51.3476 21.9835C52.0788 21.9835 52.6711 22.5762 52.6711 23.307L52.6703 39.7675ZM64.9326 30.214C65.6634 30.214 66.2561 30.8063 66.2561 31.5375C66.2561 32.2687 65.6638 32.861 64.9326 32.861H58.7439V38.444H64.9326C65.6634 38.444 66.2561 39.0368 66.2561 39.7675C66.2561 40.4983 65.6638 41.091 64.9326 41.091H57.4204C56.6896 41.091 56.0969 40.4983 56.0969 39.7675V23.3075C56.0969 22.5767 56.6892 21.9839 57.4204 21.9839H64.9326C65.6634 21.9839 66.2561 22.5767 66.2561 23.3075C66.2561 24.0382 65.6638 24.631 64.9326 24.631H58.7439V30.2144H64.9326V30.214ZM86.7409 23.6018L82.9841 40.0619C82.847 40.664 82.3116 41.091 81.6938 41.091C81.0759 41.091 80.541 40.664 80.4034 40.0619L77.9374 29.2561L75.4714 40.0619C75.3339 40.664 74.7985 41.091 74.1811 41.091C73.5637 41.091 73.0283 40.664 72.8907 40.0619L69.1348 23.6018C68.9722 22.8894 69.418 22.1797 70.1308 22.0171C70.8436 21.8545 71.5529 22.3003 71.7155 23.0131L74.1815 33.8189L76.6475 23.0131C76.7846 22.4109 77.32 21.9839 77.9379 21.9839C78.5553 21.9839 79.0907 22.4109 79.2282 23.0131L81.6942 33.8198L84.1607 23.0131C84.3233 22.3007 85.0335 21.8549 85.7454 22.0171C86.4582 22.1797 86.904 22.889 86.7409 23.6018ZM98.7184 30.214C99.4496 30.214 100.042 30.8063 100.042 31.5375V39.7675C100.042 40.4983 99.4496 41.091 98.7184 41.091H91.2061C90.4754 41.091 89.8826 40.4983 89.8826 39.7675C89.8826 39.0368 90.4749 38.444 91.2061 38.444H97.3949V32.861H91.2061C90.4754 32.861 89.8826 32.2687 89.8826 31.5375V23.3075C89.8826 22.5767 90.4749 21.9839 91.2061 21.9839H98.7184C99.4496 21.9839 100.042 22.5767 100.042 23.3075C100.042 24.0382 99.4496 24.631 98.7184 24.631H92.5296V30.2144H98.7184V30.214Z"
        fill="#FFFFFE" />
    <path fill-rule="evenodd" clip-rule="evenodd"
        d="M7.42383 110.278C7.42383 111.545 8.45432 112.575 9.72093 112.575C10.9875 112.575 12.018 111.545 12.018 110.278V13.8574H7.42383V110.278Z"
        fill="#FFFFFE" />
    <path fill-rule="evenodd" clip-rule="evenodd"
        d="M14.6648 110.28C14.6648 113.006 12.447 115.224 9.72111 115.224C6.99479 115.224 4.77744 113.006 4.77744 110.28V20.8231H0V110.28C0 112.877 1.01122 115.318 2.84729 117.153C4.6829 118.989 7.12382 120.001 9.72066 120.001C15.081 120.001 19.4422 115.64 19.4422 110.28L19.4718 6.89941H14.6648V110.28Z"
        fill="#FFFFFE" />
    <script xmlns="" />
</svg>